<svg xmlns="http://www.w3.org/2000/svg" fill="none" viewBox="0 0 40 40">
  <path fill="#30BF39" stroke="#9643A4" d="M38.875 20c0 10.424-8.45 18.875-18.875 18.875-10.424 0-18.875-8.45-18.875-18.875C1.125 9.576 9.575 1.125 20 1.125c10.424 0 18.875 8.45 18.875 18.875z"/>
  <path fill="#fff" d="M25.875 21.75c-.25-.124-1.563-.874-1.813-.937-.25-.125-.437-.125-.625.125-.187.25-.75.875-.875 1-.187.188-.312.188-.562.063-.25-.125-1.125-.438-2.125-1.438-.75-.75-1.313-1.625-1.438-1.937-.125-.25 0-.438.125-.563.125-.125.25-.312.438-.437.187-.125.187-.25.312-.438.125-.187.063-.312 0-.5-.062-.187-.562-1.5-.75-2.062-.187-.563-.437-.438-.562-.5-.188 0-.313-.063-.5-.063-.25 0-.563.125-.75.313-.25.25-1 .875-1 2.187 0 1.313.875 2.688 1 2.813.125.187 1.75 3.062 4.437 4.25 2.688 1.187 2.688.812 3.188.812s1.625-.625 1.875-1.187c.25-.625.25-1.188.187-1.25-.125 0-.312-.063-.562-.25zm-5 6.438c-1.75 0-3.375-.5-4.813-1.437l-3.375 1.062 1.125-3.25c-1.062-1.5-1.687-3.312-1.687-5.187a8.802 8.802 0 0 1 8.812-8.813c4.875 0 8.75 3.938 8.75 8.813a8.802 8.802 0 0 1-8.812 8.812zm0-19.375c-5.813 0-10.563 4.75-10.563 10.563 0 1.937.5 3.812 1.5 5.437l-1.937 5.688 5.875-1.875c1.562.875 3.312 1.312 5.125 1.312 5.812 0 10.562-4.75 10.562-10.562 0-5.813-4.687-10.563-10.562-10.563z"/>
</svg>